<svg t="1708606669057" class="icon" viewBox="0 0 1024 1024" version="1.1" xmlns="http://www.w3.org/2000/svg" p-id="15219" width="200" height="200"><path d="M16 856v56c0 52.8 43.2 96 96 96h800c52.8 0 96-43.2 96-96v-56H16z" fill="#E1E6E9" p-id="15220"></path><path d="M912 1024H112C49.599 1024 0 974.399 0 912v-56c0-9.602 6.4-16.002 16-16.002h992.001c9.601 0 16.001 6.4 16.001 16.001V912C1024 974.4 974.4 1024 912 1024zM32 872v40c0 44.8 35.2 80 80 80h800c44.8 0 80-35.2 80-80v-40H32z" fill="#193651" p-id="15221"></path><path d="M923.2 267.2H100.8c-27.2 0-48 20.801-48 48.001V856h916.8V315.2c1.6-25.6-20.8-47.998-46.4-47.998z" fill="#2EA2DB" p-id="15222"></path><path d="M923.2 251.2H100.8c-35.2 0-63.999 28.8-63.999 64V856c0 9.6 6.4 16 16.001 16h916.8c9.6 0 16-6.4 16-16V315.2c1.597-35.2-27.202-64-62.403-64z m32 588.8H68.8V315.2c0-17.6 14.401-32 32-32h820.801c17.6 0 32 14.4 32 32v524.798h1.598z" fill="#193651" p-id="15223"></path><path d="M117.44 331.873h788.8v460.8h-788.8z" fill="#FFFFFF" p-id="15224"></path><path d="M614.4 16h-312a57.358 57.358 0 0 0-57.6 57.6v603.2a57.358 57.358 0 0 0 57.6 57.6h452.799a57.358 57.358 0 0 0 57.599-57.6V214.4L614.4 16z" fill="#E1E6E9" p-id="15225"></path><path d="M755.2 750.4H302.4c-40 0-73.6-33.601-73.6-73.601V73.6c0-40 33.6-73.6 73.6-73.6h312c4.8 0 8 1.6 11.2 4.8L824 203.2c3.2 3.2 4.799 6.4 4.799 11.199v462.4c1.6 40-32 73.6-73.598 73.6zM302.4 32c-22.401 0-41.601 19.2-41.601 41.6v603.2c0 22.402 19.2 41.602 41.6 41.602h452.8c22.4 0 41.6-19.2 41.6-41.601v-456L608 32H302.4z" fill="#193651" p-id="15226"></path><path d="M308.8 670.399V80h300.8l140.8 140.8V670.4z" fill="#FFFFFF" p-id="15227"></path><path d="M352 123.2h192v23.999H352z m0 81.6h192v24H352z" fill="#193651" p-id="15228"></path><path d="M352 302.4h347.2v20.8H352z m0 97.6h347.2v20.8H352z m0 96h347.2v20.8H352z m0 97.6h174.401v20.8h-174.4z" fill="#E1E6E9" p-id="15229"></path><path d="M609.6 33.6v132.8c0 30.4 24 54.4 54.401 54.4h132.8l-187.2-187.2z" fill="#F16051" p-id="15230"></path><path d="M409.6 916.8h32v32h-32z m86.4 0h32v32h-32z m86.4 0h32v32h-32z" fill="#193651" p-id="15231"></path></svg>